<mxfile host="app.diagrams.net" modified="2022-03-29T14:38:03.091Z" agent="5.0 (Windows NT 10.0; Win64; x64) AppleWebKit/537.36 (KHTML, like Gecko) Chrome/99.0.4844.84 Safari/537.36" etag="utx8C8EIQPNw1fvmWFAz" version="17.2.4" type="github">
  <diagram id="sSrQEJHS6l0Eqr6j4WkJ" name="Page-1">
    <mxGraphModel dx="1422" dy="754" grid="1" gridSize="10" guides="1" tooltips="1" connect="1" arrows="1" fold="1" page="1" pageScale="1" pageWidth="827" pageHeight="1169" math="0" shadow="0">
      <root>
        <mxCell id="0" />
        <mxCell id="1" parent="0" />
        <mxCell id="P88Lr_-GHB6a2Qcyx46--3" value="" style="edgeStyle=orthogonalEdgeStyle;rounded=0;orthogonalLoop=1;jettySize=auto;html=1;" parent="1" source="P88Lr_-GHB6a2Qcyx46--1" target="P88Lr_-GHB6a2Qcyx46--2" edge="1">
          <mxGeometry relative="1" as="geometry">
            <Array as="points">
              <mxPoint x="421" y="180" />
              <mxPoint x="91" y="180" />
            </Array>
          </mxGeometry>
        </mxCell>
        <mxCell id="P88Lr_-GHB6a2Qcyx46--5" value="" style="edgeStyle=orthogonalEdgeStyle;rounded=0;orthogonalLoop=1;jettySize=auto;html=1;" parent="1" source="P88Lr_-GHB6a2Qcyx46--1" edge="1">
          <mxGeometry relative="1" as="geometry">
            <mxPoint x="309" y="230" as="targetPoint" />
            <Array as="points">
              <mxPoint x="421" y="180" />
              <mxPoint x="309" y="180" />
            </Array>
          </mxGeometry>
        </mxCell>
        <mxCell id="P88Lr_-GHB6a2Qcyx46--7" value="" style="edgeStyle=orthogonalEdgeStyle;rounded=0;orthogonalLoop=1;jettySize=auto;html=1;" parent="1" source="P88Lr_-GHB6a2Qcyx46--1" edge="1">
          <mxGeometry relative="1" as="geometry">
            <mxPoint x="529" y="230" as="targetPoint" />
            <Array as="points">
              <mxPoint x="421" y="180" />
              <mxPoint x="529" y="180" />
            </Array>
          </mxGeometry>
        </mxCell>
        <mxCell id="P88Lr_-GHB6a2Qcyx46--9" value="" style="edgeStyle=orthogonalEdgeStyle;rounded=0;orthogonalLoop=1;jettySize=auto;html=1;" parent="1" source="P88Lr_-GHB6a2Qcyx46--1" edge="1">
          <mxGeometry relative="1" as="geometry">
            <mxPoint x="749" y="230" as="targetPoint" />
            <Array as="points">
              <mxPoint x="421" y="180" />
              <mxPoint x="749" y="180" />
            </Array>
          </mxGeometry>
        </mxCell>
        <mxCell id="P88Lr_-GHB6a2Qcyx46--1" value="&lt;font style=&quot;font-size: 18px&quot;&gt;HANDBOOK(pom)&lt;/font&gt;" style="rounded=0;whiteSpace=wrap;html=1;" parent="1" vertex="1">
          <mxGeometry x="281" y="40" width="279" height="100" as="geometry" />
        </mxCell>
        <mxCell id="P88Lr_-GHB6a2Qcyx46--2" value="&lt;font&gt;&lt;span style=&quot;font-size: 18px&quot;&gt;UTIL(jar)&lt;/span&gt;&lt;br&gt;статические методы не относящиеся к бизнес-логике&lt;br&gt;&lt;/font&gt;" style="rounded=0;whiteSpace=wrap;html=1;" parent="1" vertex="1">
          <mxGeometry x="2" y="230" width="178" height="100" as="geometry" />
        </mxCell>
        <mxCell id="P88Lr_-GHB6a2Qcyx46--10" value="&lt;font&gt;&lt;span style=&quot;font-size: 18px&quot;&gt;DAO(jar)&lt;/span&gt;&lt;br&gt;&lt;font style=&quot;font-size: 14px&quot;&gt;взаимодействие с БД&lt;/font&gt;&lt;br&gt;&lt;/font&gt;" style="rounded=0;whiteSpace=wrap;html=1;" parent="1" vertex="1">
          <mxGeometry x="220" y="230" width="178" height="100" as="geometry" />
        </mxCell>
        <mxCell id="P88Lr_-GHB6a2Qcyx46--11" value="&lt;font&gt;&lt;span style=&quot;font-size: 18px&quot;&gt;SERVICE(jar)&lt;/span&gt;&lt;br&gt;&lt;font style=&quot;font-size: 14px&quot;&gt;бизнес-логика&lt;/font&gt;&lt;br&gt;&lt;/font&gt;" style="rounded=0;whiteSpace=wrap;html=1;" parent="1" vertex="1">
          <mxGeometry x="440" y="230" width="178" height="100" as="geometry" />
        </mxCell>
        <mxCell id="P88Lr_-GHB6a2Qcyx46--12" value="&lt;font&gt;&lt;span style=&quot;font-size: 18px&quot;&gt;WEB(war)&lt;/span&gt;&lt;br&gt;&lt;font size=&quot;3&quot;&gt;взаимодействие с клиентом&lt;/font&gt;&lt;br&gt;&lt;/font&gt;" style="rounded=0;whiteSpace=wrap;html=1;" parent="1" vertex="1">
          <mxGeometry x="660" y="230" width="178" height="100" as="geometry" />
        </mxCell>
        <mxCell id="P88Lr_-GHB6a2Qcyx46--18" value="" style="endArrow=none;dashed=1;html=1;dashPattern=1 3;strokeWidth=2;rounded=0;fontSize=18;" parent="1" edge="1">
          <mxGeometry width="50" height="50" relative="1" as="geometry">
            <mxPoint x="190" y="279.65999999999997" as="sourcePoint" />
            <mxPoint x="220" y="279.65999999999997" as="targetPoint" />
          </mxGeometry>
        </mxCell>
        <mxCell id="P88Lr_-GHB6a2Qcyx46--23" value="" style="endArrow=none;dashed=1;html=1;dashPattern=1 3;strokeWidth=2;rounded=0;fontSize=18;" parent="1" edge="1">
          <mxGeometry width="50" height="50" relative="1" as="geometry">
            <mxPoint x="630" y="280" as="sourcePoint" />
            <mxPoint x="640" y="279.65999999999985" as="targetPoint" />
            <Array as="points">
              <mxPoint x="660" y="280" />
            </Array>
          </mxGeometry>
        </mxCell>
        <mxCell id="P88Lr_-GHB6a2Qcyx46--24" value="" style="endArrow=none;dashed=1;html=1;dashPattern=1 3;strokeWidth=2;rounded=0;fontSize=18;" parent="1" edge="1">
          <mxGeometry width="50" height="50" relative="1" as="geometry">
            <mxPoint x="410" y="280" as="sourcePoint" />
            <mxPoint x="420" y="279.65999999999985" as="targetPoint" />
            <Array as="points">
              <mxPoint x="440" y="280" />
            </Array>
          </mxGeometry>
        </mxCell>
        <mxCell id="P88Lr_-GHB6a2Qcyx46--25" value="" style="triangle;whiteSpace=wrap;html=1;fontSize=18;direction=west;" parent="1" vertex="1">
          <mxGeometry x="180" y="270" width="10" height="20" as="geometry" />
        </mxCell>
        <mxCell id="P88Lr_-GHB6a2Qcyx46--28" value="" style="triangle;whiteSpace=wrap;html=1;fontSize=18;direction=west;" parent="1" vertex="1">
          <mxGeometry x="398" y="270" width="10" height="20" as="geometry" />
        </mxCell>
        <mxCell id="P88Lr_-GHB6a2Qcyx46--29" value="" style="triangle;whiteSpace=wrap;html=1;fontSize=18;direction=west;" parent="1" vertex="1">
          <mxGeometry x="618" y="270" width="10" height="20" as="geometry" />
        </mxCell>
      </root>
    </mxGraphModel>
  </diagram>
</mxfile>
